<mxfile host="app.diagrams.net" modified="2022-09-22T08:45:59.345Z" agent="5.0 (Windows NT 10.0; Win64; x64) AppleWebKit/537.36 (KHTML, like Gecko) Chrome/105.0.0.0 Safari/537.36" etag="JGiJFp_90WfnhDUz8JEu" version="20.3.3" type="github">
  <diagram id="APwuHbiYG4Lb2C5K3ilA" name="페이지-1">
    <mxGraphModel dx="1673" dy="934" grid="1" gridSize="10" guides="1" tooltips="1" connect="1" arrows="1" fold="1" page="1" pageScale="1" pageWidth="827" pageHeight="1169" background="#F4F1DE" math="0" shadow="0">
      <root>
        <mxCell id="0" />
        <mxCell id="1" parent="0" />
        <mxCell id="2qy_fTEtlkqDrG2n2hL4-70" value="" style="ellipse;whiteSpace=wrap;html=1;fillColor=#e1d5e7;strokeColor=#9673a6;" vertex="1" parent="1">
          <mxGeometry x="147.5" y="72.5" width="92.5" height="35" as="geometry" />
        </mxCell>
        <mxCell id="2qy_fTEtlkqDrG2n2hL4-69" value="" style="ellipse;whiteSpace=wrap;html=1;fillColor=#e1d5e7;strokeColor=#9673a6;" vertex="1" parent="1">
          <mxGeometry x="147.5" y="32.5" width="92.5" height="35" as="geometry" />
        </mxCell>
        <mxCell id="2qy_fTEtlkqDrG2n2hL4-18" value="" style="ellipse;whiteSpace=wrap;html=1;fillColor=#e1d5e7;strokeColor=#9673a6;" vertex="1" parent="1">
          <mxGeometry x="307.5" y="147.5" width="85" height="45" as="geometry" />
        </mxCell>
        <mxCell id="2qy_fTEtlkqDrG2n2hL4-65" style="edgeStyle=orthogonalEdgeStyle;rounded=0;orthogonalLoop=1;jettySize=auto;html=1;exitX=1;exitY=0.5;exitDx=0;exitDy=0;entryX=0;entryY=0.5;entryDx=0;entryDy=0;strokeColor=#E07A5F;fontSize=20;fontColor=#393C56;fillColor=#F2CC8F;" edge="1" parent="1" source="2qy_fTEtlkqDrG2n2hL4-1" target="2qy_fTEtlkqDrG2n2hL4-3">
          <mxGeometry relative="1" as="geometry" />
        </mxCell>
        <mxCell id="2qy_fTEtlkqDrG2n2hL4-68" style="edgeStyle=orthogonalEdgeStyle;rounded=0;orthogonalLoop=1;jettySize=auto;html=1;exitX=1;exitY=0.5;exitDx=0;exitDy=0;entryX=0;entryY=0.5;entryDx=0;entryDy=0;strokeColor=#E07A5F;fontSize=20;fontColor=#393C56;fillColor=#F2CC8F;" edge="1" parent="1" source="2qy_fTEtlkqDrG2n2hL4-1" target="2qy_fTEtlkqDrG2n2hL4-7">
          <mxGeometry relative="1" as="geometry">
            <Array as="points">
              <mxPoint x="70" y="50" />
              <mxPoint x="70" y="130" />
            </Array>
          </mxGeometry>
        </mxCell>
        <mxCell id="2qy_fTEtlkqDrG2n2hL4-1" value="html" style="rounded=0;whiteSpace=wrap;html=1;fillColor=#F2CC8F;strokeColor=#E07A5F;fontColor=#393C56;" vertex="1" parent="1">
          <mxGeometry y="40" width="60" height="20" as="geometry" />
        </mxCell>
        <mxCell id="2qy_fTEtlkqDrG2n2hL4-2" value="link" style="rounded=0;whiteSpace=wrap;html=1;fillColor=#F2CC8F;strokeColor=#E07A5F;fontColor=#393C56;" vertex="1" parent="1">
          <mxGeometry x="160" y="80" width="60" height="20" as="geometry" />
        </mxCell>
        <mxCell id="2qy_fTEtlkqDrG2n2hL4-66" style="edgeStyle=orthogonalEdgeStyle;rounded=0;orthogonalLoop=1;jettySize=auto;html=1;exitX=1;exitY=0.5;exitDx=0;exitDy=0;entryX=0;entryY=0.5;entryDx=0;entryDy=0;strokeColor=#E07A5F;fontSize=20;fontColor=#393C56;fillColor=#F2CC8F;" edge="1" parent="1" source="2qy_fTEtlkqDrG2n2hL4-3" target="2qy_fTEtlkqDrG2n2hL4-6">
          <mxGeometry relative="1" as="geometry" />
        </mxCell>
        <mxCell id="2qy_fTEtlkqDrG2n2hL4-67" style="edgeStyle=orthogonalEdgeStyle;rounded=0;orthogonalLoop=1;jettySize=auto;html=1;exitX=1;exitY=0.5;exitDx=0;exitDy=0;entryX=0;entryY=0.5;entryDx=0;entryDy=0;strokeColor=#E07A5F;fontSize=20;fontColor=#393C56;fillColor=#F2CC8F;" edge="1" parent="1" source="2qy_fTEtlkqDrG2n2hL4-3" target="2qy_fTEtlkqDrG2n2hL4-2">
          <mxGeometry relative="1" as="geometry">
            <Array as="points">
              <mxPoint x="150" y="50" />
              <mxPoint x="150" y="90" />
            </Array>
          </mxGeometry>
        </mxCell>
        <mxCell id="2qy_fTEtlkqDrG2n2hL4-3" value="head" style="rounded=0;whiteSpace=wrap;html=1;fillColor=#F2CC8F;strokeColor=#E07A5F;fontColor=#393C56;" vertex="1" parent="1">
          <mxGeometry x="80" y="40" width="60" height="20" as="geometry" />
        </mxCell>
        <mxCell id="2qy_fTEtlkqDrG2n2hL4-6" value="meta" style="rounded=0;whiteSpace=wrap;html=1;fillColor=#F2CC8F;strokeColor=#E07A5F;fontColor=#393C56;" vertex="1" parent="1">
          <mxGeometry x="160" y="40" width="60" height="20" as="geometry" />
        </mxCell>
        <mxCell id="2qy_fTEtlkqDrG2n2hL4-73" style="edgeStyle=orthogonalEdgeStyle;rounded=0;orthogonalLoop=1;jettySize=auto;html=1;exitX=1;exitY=0.5;exitDx=0;exitDy=0;entryX=0;entryY=0.5;entryDx=0;entryDy=0;strokeColor=#E07A5F;fontSize=20;fontColor=#393C56;fillColor=#F2CC8F;" edge="1" parent="1" source="2qy_fTEtlkqDrG2n2hL4-7" target="2qy_fTEtlkqDrG2n2hL4-8">
          <mxGeometry relative="1" as="geometry" />
        </mxCell>
        <mxCell id="2qy_fTEtlkqDrG2n2hL4-78" style="edgeStyle=orthogonalEdgeStyle;rounded=0;orthogonalLoop=1;jettySize=auto;html=1;exitX=1;exitY=0.5;exitDx=0;exitDy=0;entryX=0;entryY=0.5;entryDx=0;entryDy=0;strokeColor=#E07A5F;fontSize=20;fontColor=#393C56;fillColor=#F2CC8F;" edge="1" parent="1" source="2qy_fTEtlkqDrG2n2hL4-7" target="2qy_fTEtlkqDrG2n2hL4-22">
          <mxGeometry relative="1" as="geometry">
            <Array as="points">
              <mxPoint x="150" y="130" />
              <mxPoint x="150" y="210" />
            </Array>
          </mxGeometry>
        </mxCell>
        <mxCell id="2qy_fTEtlkqDrG2n2hL4-7" value="body" style="rounded=0;whiteSpace=wrap;html=1;fillColor=#F2CC8F;strokeColor=#E07A5F;fontColor=#393C56;" vertex="1" parent="1">
          <mxGeometry x="80" y="120" width="60" height="20" as="geometry" />
        </mxCell>
        <mxCell id="2qy_fTEtlkqDrG2n2hL4-74" style="edgeStyle=orthogonalEdgeStyle;rounded=0;orthogonalLoop=1;jettySize=auto;html=1;exitX=1;exitY=0.5;exitDx=0;exitDy=0;entryX=0;entryY=0.5;entryDx=0;entryDy=0;strokeColor=#E07A5F;fontSize=20;fontColor=#393C56;fillColor=#F2CC8F;" edge="1" parent="1" source="2qy_fTEtlkqDrG2n2hL4-8" target="2qy_fTEtlkqDrG2n2hL4-9">
          <mxGeometry relative="1" as="geometry" />
        </mxCell>
        <mxCell id="2qy_fTEtlkqDrG2n2hL4-76" style="edgeStyle=orthogonalEdgeStyle;rounded=0;orthogonalLoop=1;jettySize=auto;html=1;exitX=1;exitY=0.5;exitDx=0;exitDy=0;entryX=0;entryY=0.5;entryDx=0;entryDy=0;strokeColor=#E07A5F;fontSize=20;fontColor=#393C56;fillColor=#F2CC8F;" edge="1" parent="1" source="2qy_fTEtlkqDrG2n2hL4-8" target="2qy_fTEtlkqDrG2n2hL4-14">
          <mxGeometry relative="1" as="geometry">
            <Array as="points">
              <mxPoint x="230" y="130" />
              <mxPoint x="230" y="170" />
            </Array>
          </mxGeometry>
        </mxCell>
        <mxCell id="2qy_fTEtlkqDrG2n2hL4-8" value="div" style="rounded=0;whiteSpace=wrap;html=1;fillColor=#F2CC8F;strokeColor=#E07A5F;fontColor=#393C56;" vertex="1" parent="1">
          <mxGeometry x="160" y="120" width="60" height="20" as="geometry" />
        </mxCell>
        <mxCell id="2qy_fTEtlkqDrG2n2hL4-75" style="edgeStyle=orthogonalEdgeStyle;rounded=0;orthogonalLoop=1;jettySize=auto;html=1;exitX=1;exitY=0.5;exitDx=0;exitDy=0;entryX=0;entryY=0.5;entryDx=0;entryDy=0;strokeColor=#E07A5F;fontSize=20;fontColor=#393C56;fillColor=#F2CC8F;" edge="1" parent="1" source="2qy_fTEtlkqDrG2n2hL4-9" target="2qy_fTEtlkqDrG2n2hL4-10">
          <mxGeometry relative="1" as="geometry" />
        </mxCell>
        <mxCell id="2qy_fTEtlkqDrG2n2hL4-9" value="a" style="rounded=0;whiteSpace=wrap;html=1;fillColor=#F2CC8F;strokeColor=#E07A5F;fontColor=#393C56;" vertex="1" parent="1">
          <mxGeometry x="240" y="120" width="60" height="20" as="geometry" />
        </mxCell>
        <mxCell id="2qy_fTEtlkqDrG2n2hL4-10" value="b" style="rounded=0;whiteSpace=wrap;html=1;fillColor=#F2CC8F;strokeColor=#E07A5F;fontColor=#393C56;" vertex="1" parent="1">
          <mxGeometry x="320" y="120" width="60" height="20" as="geometry" />
        </mxCell>
        <mxCell id="2qy_fTEtlkqDrG2n2hL4-77" style="edgeStyle=orthogonalEdgeStyle;rounded=0;orthogonalLoop=1;jettySize=auto;html=1;exitX=1;exitY=0.5;exitDx=0;exitDy=0;entryX=0;entryY=0.5;entryDx=0;entryDy=0;strokeColor=#E07A5F;fontSize=20;fontColor=#393C56;fillColor=#F2CC8F;" edge="1" parent="1" source="2qy_fTEtlkqDrG2n2hL4-14" target="2qy_fTEtlkqDrG2n2hL4-15">
          <mxGeometry relative="1" as="geometry" />
        </mxCell>
        <mxCell id="2qy_fTEtlkqDrG2n2hL4-14" value="div" style="rounded=0;whiteSpace=wrap;html=1;fillColor=#F2CC8F;strokeColor=#E07A5F;fontColor=#393C56;" vertex="1" parent="1">
          <mxGeometry x="240" y="160" width="60" height="20" as="geometry" />
        </mxCell>
        <mxCell id="2qy_fTEtlkqDrG2n2hL4-15" value="a" style="rounded=0;whiteSpace=wrap;html=1;fillColor=#F2CC8F;strokeColor=#E07A5F;fontColor=#393C56;" vertex="1" parent="1">
          <mxGeometry x="320" y="160" width="60" height="20" as="geometry" />
        </mxCell>
        <mxCell id="2qy_fTEtlkqDrG2n2hL4-16" value="&lt;font style=&quot;font-size: 20px;&quot;&gt;x3&lt;/font&gt;" style="text;html=1;resizable=0;autosize=1;align=center;verticalAlign=middle;points=[];fillColor=none;strokeColor=none;rounded=0;fontColor=#393C56;" vertex="1" parent="1">
          <mxGeometry x="390" y="147.5" width="40" height="40" as="geometry" />
        </mxCell>
        <mxCell id="2qy_fTEtlkqDrG2n2hL4-21" value="" style="ellipse;whiteSpace=wrap;html=1;fillColor=#e1d5e7;strokeColor=#9673a6;" vertex="1" parent="1">
          <mxGeometry x="390" y="340" width="170" height="90" as="geometry" />
        </mxCell>
        <mxCell id="2qy_fTEtlkqDrG2n2hL4-79" style="edgeStyle=orthogonalEdgeStyle;rounded=0;orthogonalLoop=1;jettySize=auto;html=1;exitX=1;exitY=0.5;exitDx=0;exitDy=0;entryX=0;entryY=0.5;entryDx=0;entryDy=0;strokeColor=#E07A5F;fontSize=20;fontColor=#393C56;fillColor=#F2CC8F;" edge="1" parent="1" source="2qy_fTEtlkqDrG2n2hL4-22" target="2qy_fTEtlkqDrG2n2hL4-23">
          <mxGeometry relative="1" as="geometry" />
        </mxCell>
        <mxCell id="2qy_fTEtlkqDrG2n2hL4-80" style="edgeStyle=orthogonalEdgeStyle;rounded=0;orthogonalLoop=1;jettySize=auto;html=1;exitX=1;exitY=0.5;exitDx=0;exitDy=0;entryX=0;entryY=0.5;entryDx=0;entryDy=0;strokeColor=#E07A5F;fontSize=20;fontColor=#393C56;fillColor=#F2CC8F;" edge="1" parent="1" source="2qy_fTEtlkqDrG2n2hL4-22" target="2qy_fTEtlkqDrG2n2hL4-59">
          <mxGeometry relative="1" as="geometry">
            <Array as="points">
              <mxPoint x="230" y="210" />
              <mxPoint x="230" y="1010" />
            </Array>
          </mxGeometry>
        </mxCell>
        <mxCell id="2qy_fTEtlkqDrG2n2hL4-81" style="edgeStyle=orthogonalEdgeStyle;rounded=0;orthogonalLoop=1;jettySize=auto;html=1;exitX=1;exitY=0.5;exitDx=0;exitDy=0;entryX=0;entryY=0.5;entryDx=0;entryDy=0;strokeColor=#E07A5F;fontSize=20;fontColor=#393C56;fillColor=#F2CC8F;" edge="1" parent="1" source="2qy_fTEtlkqDrG2n2hL4-22" target="2qy_fTEtlkqDrG2n2hL4-60">
          <mxGeometry relative="1" as="geometry">
            <Array as="points">
              <mxPoint x="230" y="210" />
              <mxPoint x="230" y="1050" />
            </Array>
          </mxGeometry>
        </mxCell>
        <mxCell id="2qy_fTEtlkqDrG2n2hL4-82" style="edgeStyle=orthogonalEdgeStyle;rounded=0;orthogonalLoop=1;jettySize=auto;html=1;exitX=1;exitY=0.5;exitDx=0;exitDy=0;entryX=0;entryY=0.5;entryDx=0;entryDy=0;strokeColor=#E07A5F;fontSize=20;fontColor=#393C56;fillColor=#F2CC8F;" edge="1" parent="1" source="2qy_fTEtlkqDrG2n2hL4-22" target="2qy_fTEtlkqDrG2n2hL4-28">
          <mxGeometry relative="1" as="geometry">
            <Array as="points">
              <mxPoint x="230" y="210" />
              <mxPoint x="230" y="290" />
            </Array>
          </mxGeometry>
        </mxCell>
        <mxCell id="2qy_fTEtlkqDrG2n2hL4-22" value="div" style="rounded=0;whiteSpace=wrap;html=1;fillColor=#F2CC8F;strokeColor=#E07A5F;fontColor=#393C56;" vertex="1" parent="1">
          <mxGeometry x="160" y="200" width="60" height="20" as="geometry" />
        </mxCell>
        <mxCell id="2qy_fTEtlkqDrG2n2hL4-83" style="edgeStyle=orthogonalEdgeStyle;rounded=0;orthogonalLoop=1;jettySize=auto;html=1;exitX=1;exitY=0.5;exitDx=0;exitDy=0;entryX=0;entryY=0.5;entryDx=0;entryDy=0;strokeColor=#E07A5F;fontSize=20;fontColor=#393C56;fillColor=#F2CC8F;" edge="1" parent="1" source="2qy_fTEtlkqDrG2n2hL4-23" target="2qy_fTEtlkqDrG2n2hL4-24">
          <mxGeometry relative="1" as="geometry" />
        </mxCell>
        <mxCell id="2qy_fTEtlkqDrG2n2hL4-84" style="edgeStyle=orthogonalEdgeStyle;rounded=0;orthogonalLoop=1;jettySize=auto;html=1;exitX=1;exitY=0.5;exitDx=0;exitDy=0;entryX=0;entryY=0.5;entryDx=0;entryDy=0;strokeColor=#E07A5F;fontSize=20;fontColor=#393C56;fillColor=#F2CC8F;" edge="1" parent="1" source="2qy_fTEtlkqDrG2n2hL4-23" target="2qy_fTEtlkqDrG2n2hL4-26">
          <mxGeometry relative="1" as="geometry">
            <Array as="points">
              <mxPoint x="310" y="210" />
              <mxPoint x="310" y="250" />
            </Array>
          </mxGeometry>
        </mxCell>
        <mxCell id="2qy_fTEtlkqDrG2n2hL4-23" value="header" style="rounded=0;whiteSpace=wrap;html=1;fillColor=#F2CC8F;strokeColor=#E07A5F;fontColor=#393C56;" vertex="1" parent="1">
          <mxGeometry x="240" y="200" width="60" height="20" as="geometry" />
        </mxCell>
        <mxCell id="2qy_fTEtlkqDrG2n2hL4-24" value="img" style="rounded=0;whiteSpace=wrap;html=1;fillColor=#F2CC8F;strokeColor=#E07A5F;fontColor=#393C56;" vertex="1" parent="1">
          <mxGeometry x="320" y="200" width="60" height="20" as="geometry" />
        </mxCell>
        <mxCell id="2qy_fTEtlkqDrG2n2hL4-86" style="edgeStyle=orthogonalEdgeStyle;rounded=0;orthogonalLoop=1;jettySize=auto;html=1;exitX=1;exitY=0.5;exitDx=0;exitDy=0;entryX=0;entryY=0.5;entryDx=0;entryDy=0;strokeColor=#E07A5F;fontSize=20;fontColor=#393C56;fillColor=#F2CC8F;" edge="1" parent="1" source="2qy_fTEtlkqDrG2n2hL4-25" target="2qy_fTEtlkqDrG2n2hL4-27">
          <mxGeometry relative="1" as="geometry" />
        </mxCell>
        <mxCell id="2qy_fTEtlkqDrG2n2hL4-25" value="h1" style="rounded=0;whiteSpace=wrap;html=1;fillColor=#F2CC8F;strokeColor=#E07A5F;fontColor=#393C56;" vertex="1" parent="1">
          <mxGeometry x="400" y="240" width="60" height="20" as="geometry" />
        </mxCell>
        <mxCell id="2qy_fTEtlkqDrG2n2hL4-85" style="edgeStyle=orthogonalEdgeStyle;rounded=0;orthogonalLoop=1;jettySize=auto;html=1;exitX=1;exitY=0.5;exitDx=0;exitDy=0;entryX=0;entryY=0.5;entryDx=0;entryDy=0;strokeColor=#E07A5F;fontSize=20;fontColor=#393C56;fillColor=#F2CC8F;" edge="1" parent="1" source="2qy_fTEtlkqDrG2n2hL4-26" target="2qy_fTEtlkqDrG2n2hL4-25">
          <mxGeometry relative="1" as="geometry" />
        </mxCell>
        <mxCell id="2qy_fTEtlkqDrG2n2hL4-26" value="div" style="rounded=0;whiteSpace=wrap;html=1;fillColor=#F2CC8F;strokeColor=#E07A5F;fontColor=#393C56;" vertex="1" parent="1">
          <mxGeometry x="320" y="240" width="60" height="20" as="geometry" />
        </mxCell>
        <mxCell id="2qy_fTEtlkqDrG2n2hL4-27" value="span" style="rounded=0;whiteSpace=wrap;html=1;fillColor=#F2CC8F;strokeColor=#E07A5F;fontColor=#393C56;" vertex="1" parent="1">
          <mxGeometry x="480" y="240" width="60" height="20" as="geometry" />
        </mxCell>
        <mxCell id="2qy_fTEtlkqDrG2n2hL4-87" style="edgeStyle=orthogonalEdgeStyle;rounded=0;orthogonalLoop=1;jettySize=auto;html=1;exitX=1;exitY=0.5;exitDx=0;exitDy=0;entryX=0;entryY=0.5;entryDx=0;entryDy=0;strokeColor=#E07A5F;fontSize=20;fontColor=#393C56;fillColor=#F2CC8F;" edge="1" parent="1" source="2qy_fTEtlkqDrG2n2hL4-28" target="2qy_fTEtlkqDrG2n2hL4-29">
          <mxGeometry relative="1" as="geometry" />
        </mxCell>
        <mxCell id="2qy_fTEtlkqDrG2n2hL4-88" style="edgeStyle=orthogonalEdgeStyle;rounded=0;orthogonalLoop=1;jettySize=auto;html=1;exitX=1;exitY=0.5;exitDx=0;exitDy=0;entryX=0;entryY=0.5;entryDx=0;entryDy=0;strokeColor=#E07A5F;fontSize=20;fontColor=#393C56;fillColor=#F2CC8F;" edge="1" parent="1" source="2qy_fTEtlkqDrG2n2hL4-28" target="2qy_fTEtlkqDrG2n2hL4-30">
          <mxGeometry relative="1" as="geometry">
            <Array as="points">
              <mxPoint x="310" y="290" />
              <mxPoint x="310" y="330" />
            </Array>
          </mxGeometry>
        </mxCell>
        <mxCell id="2qy_fTEtlkqDrG2n2hL4-89" style="edgeStyle=orthogonalEdgeStyle;rounded=0;orthogonalLoop=1;jettySize=auto;html=1;exitX=1;exitY=0.5;exitDx=0;exitDy=0;entryX=0;entryY=0.5;entryDx=0;entryDy=0;strokeColor=#E07A5F;fontSize=20;fontColor=#393C56;fillColor=#F2CC8F;" edge="1" parent="1" source="2qy_fTEtlkqDrG2n2hL4-28" target="2qy_fTEtlkqDrG2n2hL4-31">
          <mxGeometry relative="1" as="geometry">
            <Array as="points">
              <mxPoint x="310" y="290" />
              <mxPoint x="310" y="370" />
            </Array>
          </mxGeometry>
        </mxCell>
        <mxCell id="2qy_fTEtlkqDrG2n2hL4-90" style="edgeStyle=orthogonalEdgeStyle;rounded=0;orthogonalLoop=1;jettySize=auto;html=1;exitX=1;exitY=0.5;exitDx=0;exitDy=0;entryX=0;entryY=0.5;entryDx=0;entryDy=0;strokeColor=#E07A5F;fontSize=20;fontColor=#393C56;fillColor=#F2CC8F;" edge="1" parent="1" source="2qy_fTEtlkqDrG2n2hL4-28" target="2qy_fTEtlkqDrG2n2hL4-39">
          <mxGeometry relative="1" as="geometry">
            <Array as="points">
              <mxPoint x="310" y="290" />
              <mxPoint x="310" y="450" />
            </Array>
          </mxGeometry>
        </mxCell>
        <mxCell id="2qy_fTEtlkqDrG2n2hL4-91" style="edgeStyle=orthogonalEdgeStyle;rounded=0;orthogonalLoop=1;jettySize=auto;html=1;exitX=1;exitY=0.5;exitDx=0;exitDy=0;entryX=0;entryY=0.5;entryDx=0;entryDy=0;strokeColor=#E07A5F;fontSize=20;fontColor=#393C56;fillColor=#F2CC8F;" edge="1" parent="1" source="2qy_fTEtlkqDrG2n2hL4-28" target="2qy_fTEtlkqDrG2n2hL4-40">
          <mxGeometry relative="1" as="geometry">
            <Array as="points">
              <mxPoint x="310" y="290" />
              <mxPoint x="310" y="490" />
            </Array>
          </mxGeometry>
        </mxCell>
        <mxCell id="2qy_fTEtlkqDrG2n2hL4-92" style="edgeStyle=orthogonalEdgeStyle;rounded=0;orthogonalLoop=1;jettySize=auto;html=1;exitX=1;exitY=0.5;exitDx=0;exitDy=0;entryX=0;entryY=0.5;entryDx=0;entryDy=0;strokeColor=#E07A5F;fontSize=20;fontColor=#393C56;fillColor=#F2CC8F;" edge="1" parent="1" source="2qy_fTEtlkqDrG2n2hL4-28" target="2qy_fTEtlkqDrG2n2hL4-41">
          <mxGeometry relative="1" as="geometry">
            <Array as="points">
              <mxPoint x="310" y="290" />
              <mxPoint x="310" y="530" />
            </Array>
          </mxGeometry>
        </mxCell>
        <mxCell id="2qy_fTEtlkqDrG2n2hL4-93" style="edgeStyle=orthogonalEdgeStyle;rounded=0;orthogonalLoop=1;jettySize=auto;html=1;exitX=1;exitY=0.5;exitDx=0;exitDy=0;entryX=0;entryY=0.5;entryDx=0;entryDy=0;strokeColor=#E07A5F;fontSize=20;fontColor=#393C56;fillColor=#F2CC8F;" edge="1" parent="1" source="2qy_fTEtlkqDrG2n2hL4-28" target="2qy_fTEtlkqDrG2n2hL4-51">
          <mxGeometry relative="1" as="geometry">
            <Array as="points">
              <mxPoint x="310" y="290" />
              <mxPoint x="310" y="770" />
            </Array>
          </mxGeometry>
        </mxCell>
        <mxCell id="2qy_fTEtlkqDrG2n2hL4-94" style="edgeStyle=orthogonalEdgeStyle;rounded=0;orthogonalLoop=1;jettySize=auto;html=1;exitX=1;exitY=0.5;exitDx=0;exitDy=0;entryX=0;entryY=0.5;entryDx=0;entryDy=0;strokeColor=#E07A5F;fontSize=20;fontColor=#393C56;fillColor=#F2CC8F;" edge="1" parent="1" source="2qy_fTEtlkqDrG2n2hL4-28" target="2qy_fTEtlkqDrG2n2hL4-52">
          <mxGeometry relative="1" as="geometry">
            <Array as="points">
              <mxPoint x="310" y="290" />
              <mxPoint x="310" y="810" />
            </Array>
          </mxGeometry>
        </mxCell>
        <mxCell id="2qy_fTEtlkqDrG2n2hL4-95" style="edgeStyle=orthogonalEdgeStyle;rounded=0;orthogonalLoop=1;jettySize=auto;html=1;exitX=1;exitY=0.5;exitDx=0;exitDy=0;entryX=0;entryY=0.5;entryDx=0;entryDy=0;strokeColor=#E07A5F;fontSize=20;fontColor=#393C56;fillColor=#F2CC8F;" edge="1" parent="1" source="2qy_fTEtlkqDrG2n2hL4-28" target="2qy_fTEtlkqDrG2n2hL4-42">
          <mxGeometry relative="1" as="geometry">
            <Array as="points">
              <mxPoint x="310" y="290" />
              <mxPoint x="310" y="850" />
            </Array>
          </mxGeometry>
        </mxCell>
        <mxCell id="2qy_fTEtlkqDrG2n2hL4-104" style="edgeStyle=orthogonalEdgeStyle;rounded=0;orthogonalLoop=1;jettySize=auto;html=1;exitX=1;exitY=0.5;exitDx=0;exitDy=0;entryX=0;entryY=0.5;entryDx=0;entryDy=0;strokeColor=#E07A5F;fontSize=20;fontColor=#393C56;fillColor=#F2CC8F;" edge="1" parent="1" source="2qy_fTEtlkqDrG2n2hL4-28" target="2qy_fTEtlkqDrG2n2hL4-103">
          <mxGeometry relative="1" as="geometry">
            <Array as="points">
              <mxPoint x="310" y="290" />
              <mxPoint x="310" y="570" />
            </Array>
          </mxGeometry>
        </mxCell>
        <mxCell id="2qy_fTEtlkqDrG2n2hL4-28" value="div" style="rounded=0;whiteSpace=wrap;html=1;fillColor=#F2CC8F;strokeColor=#E07A5F;fontColor=#393C56;" vertex="1" parent="1">
          <mxGeometry x="240" y="280" width="60" height="20" as="geometry" />
        </mxCell>
        <mxCell id="2qy_fTEtlkqDrG2n2hL4-29" value="h3" style="rounded=0;whiteSpace=wrap;html=1;fillColor=#F2CC8F;strokeColor=#E07A5F;fontColor=#393C56;" vertex="1" parent="1">
          <mxGeometry x="320" y="280" width="60" height="20" as="geometry" />
        </mxCell>
        <mxCell id="2qy_fTEtlkqDrG2n2hL4-30" value="hr" style="rounded=0;whiteSpace=wrap;html=1;fillColor=#F2CC8F;strokeColor=#E07A5F;fontColor=#393C56;" vertex="1" parent="1">
          <mxGeometry x="320" y="320" width="60" height="20" as="geometry" />
        </mxCell>
        <mxCell id="2qy_fTEtlkqDrG2n2hL4-98" style="edgeStyle=orthogonalEdgeStyle;rounded=0;orthogonalLoop=1;jettySize=auto;html=1;exitX=1;exitY=0.5;exitDx=0;exitDy=0;entryX=0;entryY=0.5;entryDx=0;entryDy=0;strokeColor=#E07A5F;fontSize=20;fontColor=#393C56;fillColor=#F2CC8F;" edge="1" parent="1" source="2qy_fTEtlkqDrG2n2hL4-31" target="2qy_fTEtlkqDrG2n2hL4-32">
          <mxGeometry relative="1" as="geometry" />
        </mxCell>
        <mxCell id="2qy_fTEtlkqDrG2n2hL4-31" value="div" style="rounded=0;whiteSpace=wrap;html=1;fillColor=#F2CC8F;strokeColor=#E07A5F;fontColor=#393C56;" vertex="1" parent="1">
          <mxGeometry x="320" y="360" width="60" height="20" as="geometry" />
        </mxCell>
        <mxCell id="2qy_fTEtlkqDrG2n2hL4-101" style="edgeStyle=orthogonalEdgeStyle;rounded=0;orthogonalLoop=1;jettySize=auto;html=1;exitX=1;exitY=0.5;exitDx=0;exitDy=0;entryX=0;entryY=0.5;entryDx=0;entryDy=0;strokeColor=#E07A5F;fontSize=20;fontColor=#393C56;fillColor=#F2CC8F;" edge="1" parent="1" source="2qy_fTEtlkqDrG2n2hL4-32" target="2qy_fTEtlkqDrG2n2hL4-99">
          <mxGeometry relative="1" as="geometry" />
        </mxCell>
        <mxCell id="2qy_fTEtlkqDrG2n2hL4-102" style="edgeStyle=orthogonalEdgeStyle;rounded=0;orthogonalLoop=1;jettySize=auto;html=1;exitX=1;exitY=0.5;exitDx=0;exitDy=0;entryX=0;entryY=0.5;entryDx=0;entryDy=0;strokeColor=#E07A5F;fontSize=20;fontColor=#393C56;fillColor=#F2CC8F;" edge="1" parent="1" source="2qy_fTEtlkqDrG2n2hL4-32" target="2qy_fTEtlkqDrG2n2hL4-34">
          <mxGeometry relative="1" as="geometry">
            <Array as="points">
              <mxPoint x="470" y="370" />
              <mxPoint x="470" y="410" />
            </Array>
          </mxGeometry>
        </mxCell>
        <mxCell id="2qy_fTEtlkqDrG2n2hL4-32" value="figure" style="rounded=0;whiteSpace=wrap;html=1;fillColor=#F2CC8F;strokeColor=#E07A5F;fontColor=#393C56;" vertex="1" parent="1">
          <mxGeometry x="400" y="360" width="60" height="20" as="geometry" />
        </mxCell>
        <mxCell id="2qy_fTEtlkqDrG2n2hL4-33" value="figcaption" style="rounded=0;whiteSpace=wrap;html=1;fillColor=#F2CC8F;strokeColor=#E07A5F;fontColor=#393C56;" vertex="1" parent="1">
          <mxGeometry x="480" y="600" width="60" height="20" as="geometry" />
        </mxCell>
        <mxCell id="2qy_fTEtlkqDrG2n2hL4-34" value="img" style="rounded=0;whiteSpace=wrap;html=1;fillColor=#F2CC8F;strokeColor=#E07A5F;fontColor=#393C56;" vertex="1" parent="1">
          <mxGeometry x="480" y="400" width="60" height="20" as="geometry" />
        </mxCell>
        <mxCell id="2qy_fTEtlkqDrG2n2hL4-35" value="" style="ellipse;whiteSpace=wrap;html=1;fillColor=#e1d5e7;strokeColor=#9673a6;" vertex="1" parent="1">
          <mxGeometry x="470" y="867.5" width="160" height="45" as="geometry" />
        </mxCell>
        <mxCell id="2qy_fTEtlkqDrG2n2hL4-36" value="" style="ellipse;whiteSpace=wrap;html=1;fillColor=#e1d5e7;strokeColor=#9673a6;" vertex="1" parent="1">
          <mxGeometry x="350" y="520" width="440" height="240" as="geometry" />
        </mxCell>
        <mxCell id="2qy_fTEtlkqDrG2n2hL4-37" value="&lt;font style=&quot;font-size: 20px;&quot;&gt;x8&lt;/font&gt;" style="text;html=1;resizable=0;autosize=1;align=center;verticalAlign=middle;points=[];fillColor=none;strokeColor=none;rounded=0;fontColor=#393C56;" vertex="1" parent="1">
          <mxGeometry x="560" y="365" width="40" height="40" as="geometry" />
        </mxCell>
        <mxCell id="2qy_fTEtlkqDrG2n2hL4-39" value="h3" style="rounded=0;whiteSpace=wrap;html=1;fillColor=#F2CC8F;strokeColor=#E07A5F;fontColor=#393C56;" vertex="1" parent="1">
          <mxGeometry x="320" y="440" width="60" height="20" as="geometry" />
        </mxCell>
        <mxCell id="2qy_fTEtlkqDrG2n2hL4-40" value="hr" style="rounded=0;whiteSpace=wrap;html=1;fillColor=#F2CC8F;strokeColor=#E07A5F;fontColor=#393C56;" vertex="1" parent="1">
          <mxGeometry x="320" y="480" width="60" height="20" as="geometry" />
        </mxCell>
        <mxCell id="2qy_fTEtlkqDrG2n2hL4-41" value="p" style="rounded=0;whiteSpace=wrap;html=1;fillColor=#F2CC8F;strokeColor=#E07A5F;fontColor=#393C56;" vertex="1" parent="1">
          <mxGeometry x="320" y="520" width="60" height="20" as="geometry" />
        </mxCell>
        <mxCell id="2qy_fTEtlkqDrG2n2hL4-114" style="edgeStyle=orthogonalEdgeStyle;rounded=0;orthogonalLoop=1;jettySize=auto;html=1;exitX=1;exitY=0.5;exitDx=0;exitDy=0;entryX=0;entryY=0.5;entryDx=0;entryDy=0;strokeColor=#E07A5F;fontSize=20;fontColor=#393C56;fillColor=#F2CC8F;" edge="1" parent="1" source="2qy_fTEtlkqDrG2n2hL4-42" target="2qy_fTEtlkqDrG2n2hL4-53">
          <mxGeometry relative="1" as="geometry" />
        </mxCell>
        <mxCell id="2qy_fTEtlkqDrG2n2hL4-115" style="edgeStyle=orthogonalEdgeStyle;rounded=0;orthogonalLoop=1;jettySize=auto;html=1;exitX=1;exitY=0.5;exitDx=0;exitDy=0;entryX=0;entryY=0.5;entryDx=0;entryDy=0;strokeColor=#E07A5F;fontSize=20;fontColor=#393C56;fillColor=#F2CC8F;" edge="1" parent="1" source="2qy_fTEtlkqDrG2n2hL4-42" target="2qy_fTEtlkqDrG2n2hL4-54">
          <mxGeometry relative="1" as="geometry">
            <Array as="points">
              <mxPoint x="390" y="850" />
              <mxPoint x="390" y="890" />
            </Array>
          </mxGeometry>
        </mxCell>
        <mxCell id="2qy_fTEtlkqDrG2n2hL4-120" style="edgeStyle=orthogonalEdgeStyle;rounded=0;orthogonalLoop=1;jettySize=auto;html=1;exitX=1;exitY=0.5;exitDx=0;exitDy=0;entryX=0;entryY=0.5;entryDx=0;entryDy=0;strokeColor=#E07A5F;fontSize=20;fontColor=#393C56;fillColor=#F2CC8F;" edge="1" parent="1" source="2qy_fTEtlkqDrG2n2hL4-42" target="2qy_fTEtlkqDrG2n2hL4-62">
          <mxGeometry relative="1" as="geometry">
            <Array as="points">
              <mxPoint x="390" y="850" />
              <mxPoint x="390" y="970" />
            </Array>
          </mxGeometry>
        </mxCell>
        <mxCell id="2qy_fTEtlkqDrG2n2hL4-42" value="div" style="rounded=0;whiteSpace=wrap;html=1;fillColor=#F2CC8F;strokeColor=#E07A5F;fontColor=#393C56;" vertex="1" parent="1">
          <mxGeometry x="320" y="840" width="60" height="20" as="geometry" />
        </mxCell>
        <mxCell id="2qy_fTEtlkqDrG2n2hL4-107" style="edgeStyle=orthogonalEdgeStyle;rounded=0;orthogonalLoop=1;jettySize=auto;html=1;exitX=1;exitY=0.5;exitDx=0;exitDy=0;entryX=0;entryY=0.5;entryDx=0;entryDy=0;strokeColor=#E07A5F;fontSize=20;fontColor=#393C56;fillColor=#F2CC8F;" edge="1" parent="1" source="2qy_fTEtlkqDrG2n2hL4-43" target="2qy_fTEtlkqDrG2n2hL4-44">
          <mxGeometry relative="1" as="geometry" />
        </mxCell>
        <mxCell id="2qy_fTEtlkqDrG2n2hL4-108" style="edgeStyle=orthogonalEdgeStyle;rounded=0;orthogonalLoop=1;jettySize=auto;html=1;exitX=1;exitY=0.5;exitDx=0;exitDy=0;entryX=0;entryY=0.5;entryDx=0;entryDy=0;strokeColor=#E07A5F;fontSize=20;fontColor=#393C56;fillColor=#F2CC8F;" edge="1" parent="1" source="2qy_fTEtlkqDrG2n2hL4-43" target="2qy_fTEtlkqDrG2n2hL4-100">
          <mxGeometry relative="1" as="geometry">
            <Array as="points">
              <mxPoint x="470" y="570" />
              <mxPoint x="470" y="610" />
            </Array>
          </mxGeometry>
        </mxCell>
        <mxCell id="2qy_fTEtlkqDrG2n2hL4-43" value="figure" style="rounded=0;whiteSpace=wrap;html=1;fillColor=#F2CC8F;strokeColor=#E07A5F;fontColor=#393C56;" vertex="1" parent="1">
          <mxGeometry x="400" y="560" width="60" height="20" as="geometry" />
        </mxCell>
        <mxCell id="2qy_fTEtlkqDrG2n2hL4-44" value="img" style="rounded=0;whiteSpace=wrap;html=1;fillColor=#F2CC8F;strokeColor=#E07A5F;fontColor=#393C56;" vertex="1" parent="1">
          <mxGeometry x="480" y="560" width="60" height="20" as="geometry" />
        </mxCell>
        <mxCell id="2qy_fTEtlkqDrG2n2hL4-45" value="h3" style="rounded=0;whiteSpace=wrap;html=1;fillColor=#F2CC8F;strokeColor=#E07A5F;fontColor=#393C56;" vertex="1" parent="1">
          <mxGeometry x="560" y="600" width="60" height="20" as="geometry" />
        </mxCell>
        <mxCell id="2qy_fTEtlkqDrG2n2hL4-46" value="p" style="rounded=0;whiteSpace=wrap;html=1;fillColor=#F2CC8F;strokeColor=#E07A5F;fontColor=#393C56;" vertex="1" parent="1">
          <mxGeometry x="560" y="640" width="60" height="20" as="geometry" />
        </mxCell>
        <mxCell id="2qy_fTEtlkqDrG2n2hL4-47" value="p" style="rounded=0;whiteSpace=wrap;html=1;fillColor=#F2CC8F;strokeColor=#E07A5F;fontColor=#393C56;" vertex="1" parent="1">
          <mxGeometry x="560" y="680" width="60" height="20" as="geometry" />
        </mxCell>
        <mxCell id="2qy_fTEtlkqDrG2n2hL4-113" style="edgeStyle=orthogonalEdgeStyle;rounded=0;orthogonalLoop=1;jettySize=auto;html=1;exitX=1;exitY=0.5;exitDx=0;exitDy=0;entryX=0;entryY=0.5;entryDx=0;entryDy=0;strokeColor=#E07A5F;fontSize=20;fontColor=#393C56;fillColor=#F2CC8F;" edge="1" parent="1" source="2qy_fTEtlkqDrG2n2hL4-48" target="2qy_fTEtlkqDrG2n2hL4-49">
          <mxGeometry relative="1" as="geometry" />
        </mxCell>
        <mxCell id="2qy_fTEtlkqDrG2n2hL4-48" value="p" style="rounded=0;whiteSpace=wrap;html=1;fillColor=#F2CC8F;strokeColor=#E07A5F;fontColor=#393C56;" vertex="1" parent="1">
          <mxGeometry x="560" y="720" width="60" height="20" as="geometry" />
        </mxCell>
        <mxCell id="2qy_fTEtlkqDrG2n2hL4-49" value="button" style="rounded=0;whiteSpace=wrap;html=1;fillColor=#F2CC8F;strokeColor=#E07A5F;fontColor=#393C56;" vertex="1" parent="1">
          <mxGeometry x="640" y="720" width="60" height="20" as="geometry" />
        </mxCell>
        <mxCell id="2qy_fTEtlkqDrG2n2hL4-50" value="&lt;font style=&quot;font-size: 20px;&quot;&gt;x4&lt;/font&gt;" style="text;html=1;resizable=0;autosize=1;align=center;verticalAlign=middle;points=[];fillColor=none;strokeColor=none;rounded=0;fontColor=#393C56;" vertex="1" parent="1">
          <mxGeometry x="790" y="620" width="40" height="40" as="geometry" />
        </mxCell>
        <mxCell id="2qy_fTEtlkqDrG2n2hL4-51" value="h3" style="rounded=0;whiteSpace=wrap;html=1;fillColor=#F2CC8F;strokeColor=#E07A5F;fontColor=#393C56;" vertex="1" parent="1">
          <mxGeometry x="320" y="760" width="60" height="20" as="geometry" />
        </mxCell>
        <mxCell id="2qy_fTEtlkqDrG2n2hL4-52" value="hr" style="rounded=0;whiteSpace=wrap;html=1;fillColor=#F2CC8F;strokeColor=#E07A5F;fontColor=#393C56;" vertex="1" parent="1">
          <mxGeometry x="320" y="800" width="60" height="20" as="geometry" />
        </mxCell>
        <mxCell id="2qy_fTEtlkqDrG2n2hL4-53" value="p" style="rounded=0;whiteSpace=wrap;html=1;fillColor=#F2CC8F;strokeColor=#E07A5F;fontColor=#393C56;" vertex="1" parent="1">
          <mxGeometry x="400" y="840" width="60" height="20" as="geometry" />
        </mxCell>
        <mxCell id="2qy_fTEtlkqDrG2n2hL4-116" style="edgeStyle=orthogonalEdgeStyle;rounded=0;orthogonalLoop=1;jettySize=auto;html=1;exitX=1;exitY=0.5;exitDx=0;exitDy=0;entryX=0;entryY=0.5;entryDx=0;entryDy=0;strokeColor=#E07A5F;fontSize=20;fontColor=#393C56;fillColor=#F2CC8F;" edge="1" parent="1" source="2qy_fTEtlkqDrG2n2hL4-54" target="2qy_fTEtlkqDrG2n2hL4-55">
          <mxGeometry relative="1" as="geometry" />
        </mxCell>
        <mxCell id="2qy_fTEtlkqDrG2n2hL4-118" style="edgeStyle=orthogonalEdgeStyle;rounded=0;orthogonalLoop=1;jettySize=auto;html=1;exitX=1;exitY=0.5;exitDx=0;exitDy=0;entryX=0;entryY=0.5;entryDx=0;entryDy=0;strokeColor=#E07A5F;fontSize=20;fontColor=#393C56;fillColor=#F2CC8F;" edge="1" parent="1" source="2qy_fTEtlkqDrG2n2hL4-54" target="2qy_fTEtlkqDrG2n2hL4-57">
          <mxGeometry relative="1" as="geometry">
            <Array as="points">
              <mxPoint x="470" y="890" />
              <mxPoint x="470" y="930" />
            </Array>
          </mxGeometry>
        </mxCell>
        <mxCell id="2qy_fTEtlkqDrG2n2hL4-54" value="form" style="rounded=0;whiteSpace=wrap;html=1;fillColor=#F2CC8F;strokeColor=#E07A5F;fontColor=#393C56;" vertex="1" parent="1">
          <mxGeometry x="400" y="880" width="60" height="20" as="geometry" />
        </mxCell>
        <mxCell id="2qy_fTEtlkqDrG2n2hL4-117" style="edgeStyle=orthogonalEdgeStyle;rounded=0;orthogonalLoop=1;jettySize=auto;html=1;exitX=1;exitY=0.5;exitDx=0;exitDy=0;entryX=0;entryY=0.5;entryDx=0;entryDy=0;strokeColor=#E07A5F;fontSize=20;fontColor=#393C56;fillColor=#F2CC8F;" edge="1" parent="1" source="2qy_fTEtlkqDrG2n2hL4-55" target="2qy_fTEtlkqDrG2n2hL4-56">
          <mxGeometry relative="1" as="geometry" />
        </mxCell>
        <mxCell id="2qy_fTEtlkqDrG2n2hL4-55" value="p" style="rounded=0;whiteSpace=wrap;html=1;fillColor=#F2CC8F;strokeColor=#E07A5F;fontColor=#393C56;" vertex="1" parent="1">
          <mxGeometry x="480" y="880" width="60" height="20" as="geometry" />
        </mxCell>
        <mxCell id="2qy_fTEtlkqDrG2n2hL4-56" value="input" style="rounded=0;whiteSpace=wrap;html=1;fillColor=#F2CC8F;strokeColor=#E07A5F;fontColor=#393C56;" vertex="1" parent="1">
          <mxGeometry x="560" y="880" width="60" height="20" as="geometry" />
        </mxCell>
        <mxCell id="2qy_fTEtlkqDrG2n2hL4-119" style="edgeStyle=orthogonalEdgeStyle;rounded=0;orthogonalLoop=1;jettySize=auto;html=1;exitX=1;exitY=0.5;exitDx=0;exitDy=0;entryX=0;entryY=0.5;entryDx=0;entryDy=0;strokeColor=#E07A5F;fontSize=20;fontColor=#393C56;fillColor=#F2CC8F;" edge="1" parent="1" source="2qy_fTEtlkqDrG2n2hL4-57" target="2qy_fTEtlkqDrG2n2hL4-58">
          <mxGeometry relative="1" as="geometry" />
        </mxCell>
        <mxCell id="2qy_fTEtlkqDrG2n2hL4-57" value="p" style="rounded=0;whiteSpace=wrap;html=1;fillColor=#F2CC8F;strokeColor=#E07A5F;fontColor=#393C56;" vertex="1" parent="1">
          <mxGeometry x="480" y="920" width="60" height="20" as="geometry" />
        </mxCell>
        <mxCell id="2qy_fTEtlkqDrG2n2hL4-58" value="button" style="rounded=0;whiteSpace=wrap;html=1;fillColor=#F2CC8F;strokeColor=#E07A5F;fontColor=#393C56;" vertex="1" parent="1">
          <mxGeometry x="560" y="920" width="60" height="20" as="geometry" />
        </mxCell>
        <mxCell id="2qy_fTEtlkqDrG2n2hL4-96" style="edgeStyle=orthogonalEdgeStyle;rounded=0;orthogonalLoop=1;jettySize=auto;html=1;exitX=1;exitY=0.5;exitDx=0;exitDy=0;entryX=0;entryY=0.5;entryDx=0;entryDy=0;strokeColor=#E07A5F;fontSize=20;fontColor=#393C56;fillColor=#F2CC8F;" edge="1" parent="1" source="2qy_fTEtlkqDrG2n2hL4-59" target="2qy_fTEtlkqDrG2n2hL4-61">
          <mxGeometry relative="1" as="geometry" />
        </mxCell>
        <mxCell id="2qy_fTEtlkqDrG2n2hL4-59" value="footer" style="rounded=0;whiteSpace=wrap;html=1;fillColor=#F2CC8F;strokeColor=#E07A5F;fontColor=#393C56;" vertex="1" parent="1">
          <mxGeometry x="240" y="1000" width="60" height="20" as="geometry" />
        </mxCell>
        <mxCell id="2qy_fTEtlkqDrG2n2hL4-60" value="script" style="rounded=0;whiteSpace=wrap;html=1;fillColor=#F2CC8F;strokeColor=#E07A5F;fontColor=#393C56;" vertex="1" parent="1">
          <mxGeometry x="240" y="1040" width="60" height="20" as="geometry" />
        </mxCell>
        <mxCell id="2qy_fTEtlkqDrG2n2hL4-97" style="edgeStyle=orthogonalEdgeStyle;rounded=0;orthogonalLoop=1;jettySize=auto;html=1;exitX=1;exitY=0.5;exitDx=0;exitDy=0;entryX=0;entryY=0.5;entryDx=0;entryDy=0;strokeColor=#E07A5F;fontSize=20;fontColor=#393C56;fillColor=#F2CC8F;" edge="1" parent="1" source="2qy_fTEtlkqDrG2n2hL4-61" target="2qy_fTEtlkqDrG2n2hL4-63">
          <mxGeometry relative="1" as="geometry" />
        </mxCell>
        <mxCell id="2qy_fTEtlkqDrG2n2hL4-61" value="p" style="rounded=0;whiteSpace=wrap;html=1;fillColor=#F2CC8F;strokeColor=#E07A5F;fontColor=#393C56;" vertex="1" parent="1">
          <mxGeometry x="320" y="1000" width="60" height="20" as="geometry" />
        </mxCell>
        <mxCell id="2qy_fTEtlkqDrG2n2hL4-62" value="img" style="rounded=0;whiteSpace=wrap;html=1;fillColor=#F2CC8F;strokeColor=#E07A5F;fontColor=#393C56;" vertex="1" parent="1">
          <mxGeometry x="400" y="960" width="60" height="20" as="geometry" />
        </mxCell>
        <mxCell id="2qy_fTEtlkqDrG2n2hL4-63" value="a" style="rounded=0;whiteSpace=wrap;html=1;fillColor=#F2CC8F;strokeColor=#E07A5F;fontColor=#393C56;" vertex="1" parent="1">
          <mxGeometry x="400" y="1000" width="60" height="20" as="geometry" />
        </mxCell>
        <mxCell id="2qy_fTEtlkqDrG2n2hL4-64" value="&lt;font style=&quot;font-size: 20px;&quot;&gt;x4&lt;/font&gt;" style="text;html=1;resizable=0;autosize=1;align=center;verticalAlign=middle;points=[];fillColor=none;strokeColor=none;rounded=0;fontColor=#393C56;" vertex="1" parent="1">
          <mxGeometry x="630" y="870" width="40" height="40" as="geometry" />
        </mxCell>
        <mxCell id="2qy_fTEtlkqDrG2n2hL4-71" value="&lt;font style=&quot;font-size: 20px;&quot;&gt;x3&lt;/font&gt;" style="text;html=1;resizable=0;autosize=1;align=center;verticalAlign=middle;points=[];fillColor=none;strokeColor=none;rounded=0;fontColor=#393C56;" vertex="1" parent="1">
          <mxGeometry x="240" y="27.5" width="40" height="40" as="geometry" />
        </mxCell>
        <mxCell id="2qy_fTEtlkqDrG2n2hL4-72" value="&lt;font style=&quot;font-size: 20px;&quot;&gt;x2&lt;/font&gt;" style="text;html=1;resizable=0;autosize=1;align=center;verticalAlign=middle;points=[];fillColor=none;strokeColor=none;rounded=0;fontColor=#393C56;" vertex="1" parent="1">
          <mxGeometry x="240" y="67.5" width="40" height="40" as="geometry" />
        </mxCell>
        <mxCell id="2qy_fTEtlkqDrG2n2hL4-99" value="figcaption" style="rounded=0;whiteSpace=wrap;html=1;fillColor=#F2CC8F;strokeColor=#E07A5F;fontColor=#393C56;" vertex="1" parent="1">
          <mxGeometry x="480" y="360" width="60" height="20" as="geometry" />
        </mxCell>
        <mxCell id="2qy_fTEtlkqDrG2n2hL4-109" style="edgeStyle=orthogonalEdgeStyle;rounded=0;orthogonalLoop=1;jettySize=auto;html=1;exitX=1;exitY=0.5;exitDx=0;exitDy=0;entryX=0;entryY=0.5;entryDx=0;entryDy=0;strokeColor=#E07A5F;fontSize=20;fontColor=#393C56;fillColor=#F2CC8F;" edge="1" parent="1" source="2qy_fTEtlkqDrG2n2hL4-100" target="2qy_fTEtlkqDrG2n2hL4-45">
          <mxGeometry relative="1" as="geometry" />
        </mxCell>
        <mxCell id="2qy_fTEtlkqDrG2n2hL4-110" style="edgeStyle=orthogonalEdgeStyle;rounded=0;orthogonalLoop=1;jettySize=auto;html=1;exitX=1;exitY=0.5;exitDx=0;exitDy=0;entryX=0;entryY=0.5;entryDx=0;entryDy=0;strokeColor=#E07A5F;fontSize=20;fontColor=#393C56;fillColor=#F2CC8F;" edge="1" parent="1" source="2qy_fTEtlkqDrG2n2hL4-100" target="2qy_fTEtlkqDrG2n2hL4-46">
          <mxGeometry relative="1" as="geometry">
            <Array as="points">
              <mxPoint x="550" y="610" />
              <mxPoint x="550" y="650" />
            </Array>
          </mxGeometry>
        </mxCell>
        <mxCell id="2qy_fTEtlkqDrG2n2hL4-111" style="edgeStyle=orthogonalEdgeStyle;rounded=0;orthogonalLoop=1;jettySize=auto;html=1;exitX=1;exitY=0.5;exitDx=0;exitDy=0;entryX=0;entryY=0.5;entryDx=0;entryDy=0;strokeColor=#E07A5F;fontSize=20;fontColor=#393C56;fillColor=#F2CC8F;" edge="1" parent="1" source="2qy_fTEtlkqDrG2n2hL4-100" target="2qy_fTEtlkqDrG2n2hL4-47">
          <mxGeometry relative="1" as="geometry">
            <Array as="points">
              <mxPoint x="550" y="610" />
              <mxPoint x="550" y="690" />
            </Array>
          </mxGeometry>
        </mxCell>
        <mxCell id="2qy_fTEtlkqDrG2n2hL4-112" style="edgeStyle=orthogonalEdgeStyle;rounded=0;orthogonalLoop=1;jettySize=auto;html=1;exitX=1;exitY=0.5;exitDx=0;exitDy=0;entryX=0;entryY=0.5;entryDx=0;entryDy=0;strokeColor=#E07A5F;fontSize=20;fontColor=#393C56;fillColor=#F2CC8F;" edge="1" parent="1" source="2qy_fTEtlkqDrG2n2hL4-100" target="2qy_fTEtlkqDrG2n2hL4-48">
          <mxGeometry relative="1" as="geometry">
            <Array as="points">
              <mxPoint x="550" y="610" />
              <mxPoint x="550" y="730" />
            </Array>
          </mxGeometry>
        </mxCell>
        <mxCell id="2qy_fTEtlkqDrG2n2hL4-100" value="figcaption" style="rounded=0;whiteSpace=wrap;html=1;fillColor=#F2CC8F;strokeColor=#E07A5F;fontColor=#393C56;" vertex="1" parent="1">
          <mxGeometry x="480" y="600" width="60" height="20" as="geometry" />
        </mxCell>
        <mxCell id="2qy_fTEtlkqDrG2n2hL4-106" style="edgeStyle=orthogonalEdgeStyle;rounded=0;orthogonalLoop=1;jettySize=auto;html=1;exitX=1;exitY=0.5;exitDx=0;exitDy=0;entryX=0;entryY=0.5;entryDx=0;entryDy=0;strokeColor=#E07A5F;fontSize=20;fontColor=#393C56;fillColor=#F2CC8F;" edge="1" parent="1" source="2qy_fTEtlkqDrG2n2hL4-103" target="2qy_fTEtlkqDrG2n2hL4-43">
          <mxGeometry relative="1" as="geometry" />
        </mxCell>
        <mxCell id="2qy_fTEtlkqDrG2n2hL4-103" value="div" style="rounded=0;whiteSpace=wrap;html=1;fillColor=#F2CC8F;strokeColor=#E07A5F;fontColor=#393C56;" vertex="1" parent="1">
          <mxGeometry x="320" y="560" width="60" height="20" as="geometry" />
        </mxCell>
      </root>
    </mxGraphModel>
  </diagram>
</mxfile>
